<svg version="1.1" xmlns="http://www.w3.org/2000/svg" xmlns:xlink="http://www.w3.org/1999/xlink" width="514.3000000000001" height="528.8000000000001"><defs><linearGradient id="JJIhmTtNTVsR" x1="500px" x2="600px" y1="3133.7000064373015px" y2="4085.2000092983244px" gradientUnits="userSpaceOnUse"><stop offset="0" stop-color="rgb(255,193,7)" stop-opacity="1"/><stop offset="1" stop-color="rgb(211,211,211)" stop-opacity="1"/></linearGradient><linearGradient id="ATePJKtHNvnK" x1="500px" x2="600px" y1="2601.7000035762785px" y2="4085.2000092983244px" gradientUnits="userSpaceOnUse"><stop offset="0" stop-color="rgb(255,193,7)" stop-opacity="1"/><stop offset="1" stop-color="rgb(211,211,211)" stop-opacity="1"/></linearGradient><linearGradient id="zUuADiDOATzS" x1="500px" x2="700px" y1="2734.7000042915342px" y2="4454.90001001358px" gradientUnits="userSpaceOnUse"><stop offset="0" stop-color="rgb(255,193,7)" stop-opacity="1"/><stop offset="1" stop-color="rgb(211,211,211)" stop-opacity="1"/></linearGradient><linearGradient id="EdmsFTqupcvE" x1="500px" x2="700px" y1="2867.70000500679px" y2="4454.90001001358px" gradientUnits="userSpaceOnUse"><stop offset="0" stop-color="rgb(255,193,7)" stop-opacity="1"/><stop offset="1" stop-color="rgb(211,211,211)" stop-opacity="1"/></linearGradient><linearGradient id="vIpVyUMtbFrQ" x1="500px" x2="600px" y1="3000.7000057220457px" y2="4085.2000092983244px" gradientUnits="userSpaceOnUse"><stop offset="0" stop-color="rgb(255,193,7)" stop-opacity="1"/><stop offset="1" stop-color="rgb(211,211,211)" stop-opacity="1"/></linearGradient><linearGradient id="MXqZaZyBCBMo" x1="600px" x2="1503.0000007152557px" y1="4085.2000092983244px" y2="2867.70000500679px" gradientUnits="userSpaceOnUse"><stop offset="0" stop-color="rgb(211,211,211)" stop-opacity="1"/><stop offset="1" stop-color="rgb(29,122,218)" stop-opacity="1"/></linearGradient><linearGradient id="uTBvJSWMbJES" x1="600px" x2="1503.0000007152557px" y1="4085.2000092983244px" y2="3000.7000057220457px" gradientUnits="userSpaceOnUse"><stop offset="0" stop-color="rgb(211,211,211)" stop-opacity="1"/><stop offset="1" stop-color="rgb(29,122,218)" stop-opacity="1"/></linearGradient><linearGradient id="QWNKelraGkSB" x1="600px" x2="1503.0000007152557px" y1="4085.2000092983244px" y2="2734.7000042915342px" gradientUnits="userSpaceOnUse"><stop offset="0" stop-color="rgb(211,211,211)" stop-opacity="1"/><stop offset="1" stop-color="rgb(29,122,218)" stop-opacity="1"/></linearGradient><linearGradient id="lhalVmkDrfRA" x1="600px" x2="1503.0000007152557px" y1="4085.2000092983244px" y2="3133.7000064373015px" gradientUnits="userSpaceOnUse"><stop offset="0" stop-color="rgb(211,211,211)" stop-opacity="1"/><stop offset="1" stop-color="rgb(29,122,218)" stop-opacity="1"/></linearGradient><linearGradient id="DTbtaAAABGwT" x1="700px" x2="1503.0000007152557px" y1="4454.90001001358px" y2="3532.7000085830687px" gradientUnits="userSpaceOnUse"><stop offset="0" stop-color="rgb(211,211,211)" stop-opacity="1"/><stop offset="1" stop-color="rgb(29,122,218)" stop-opacity="1"/></linearGradient><linearGradient id="EvEutKwJmaTt" x1="700px" x2="1503.0000007152557px" y1="4454.90001001358px" y2="3266.700007152557px" gradientUnits="userSpaceOnUse"><stop offset="0" stop-color="rgb(211,211,211)" stop-opacity="1"/><stop offset="1" stop-color="rgb(29,122,218)" stop-opacity="1"/></linearGradient><linearGradient id="tMANlDPOTbNp" x1="700px" x2="1503.0000007152557px" y1="4454.90001001358px" y2="2601.7000035762785px" gradientUnits="userSpaceOnUse"><stop offset="0" stop-color="rgb(211,211,211)" stop-opacity="1"/><stop offset="1" stop-color="rgb(29,122,218)" stop-opacity="1"/></linearGradient><linearGradient id="mMGHkKHMEeHS" x1="700px" x2="600px" y1="4454.90001001358px" y2="4163.200009298324px" gradientUnits="userSpaceOnUse"><stop offset="0" stop-color="rgb(211,211,211)" stop-opacity="1"/><stop offset="1" stop-color="rgb(211,211,211)" stop-opacity="1"/></linearGradient><linearGradient id="KLvvmghCLXxC" x1="500px" x2="600px" y1="541.5px" y2="1360.0000021457672px" gradientUnits="userSpaceOnUse"><stop offset="0" stop-color="rgb(255,193,7)" stop-opacity="1"/><stop offset="1" stop-color="rgb(211,211,211)" stop-opacity="1"/></linearGradient><linearGradient id="cqIfeFkeeVsA" x1="500px" x2="600px" y1="674.5000007152557px" y2="1360.0000021457672px" gradientUnits="userSpaceOnUse"><stop offset="0" stop-color="rgb(255,193,7)" stop-opacity="1"/><stop offset="1" stop-color="rgb(211,211,211)" stop-opacity="1"/></linearGradient><linearGradient id="RVmWAJIwMJrD" x1="500px" x2="600px" y1="807.5000014305115px" y2="1360.0000021457672px" gradientUnits="userSpaceOnUse"><stop offset="0" stop-color="rgb(255,193,7)" stop-opacity="1"/><stop offset="1" stop-color="rgb(211,211,211)" stop-opacity="1"/></linearGradient><linearGradient id="ubISJiPuEiHw" x1="600px" x2="1503.0000007152557px" y1="1360.0000021457672px" y2="541.5px" gradientUnits="userSpaceOnUse"><stop offset="0" stop-color="rgb(211,211,211)" stop-opacity="1"/><stop offset="1" stop-color="rgb(29,122,218)" stop-opacity="1"/></linearGradient><linearGradient id="hUOPFDwgdCcg" x1="600px" x2="1503.0000007152557px" y1="1360.0000021457672px" y2="674.5000007152557px" gradientUnits="userSpaceOnUse"><stop offset="0" stop-color="rgb(211,211,211)" stop-opacity="1"/><stop offset="1" stop-color="rgb(29,122,218)" stop-opacity="1"/></linearGradient><linearGradient id="UtwbvwqBzwLk" x1="600px" x2="1503.0000007152557px" y1="1360.0000021457672px" y2="807.5000014305115px" gradientUnits="userSpaceOnUse"><stop offset="0" stop-color="rgb(211,211,211)" stop-opacity="1"/><stop offset="1" stop-color="rgb(29,122,218)" stop-opacity="1"/></linearGradient><linearGradient id="TLyPqJdUtSeB" x1="3182.5000014305115px" x2="3735.000002145767px" y1="500px" y2="600px" gradientUnits="userSpaceOnUse"><stop offset="0" stop-color="rgb(255,193,7)" stop-opacity="1"/><stop offset="1" stop-color="rgb(211,211,211)" stop-opacity="1"/></linearGradient><linearGradient id="yfdGncXDTluq" x1="3182.5000014305115px" x2="3735.000002145767px" y1="633.0000007152557px" y2="600px" gradientUnits="userSpaceOnUse"><stop offset="0" stop-color="rgb(255,193,7)" stop-opacity="1"/><stop offset="1" stop-color="rgb(211,211,211)" stop-opacity="1"/></linearGradient><linearGradient id="GZfXdMTwkNgT" x1="4009.000002145767px" x2="2906.0000014305115px" y1="639px" y2="1319.7000014305115px" gradientUnits="userSpaceOnUse"><stop offset="0" stop-color="rgb(211,211,211)" stop-opacity="1"/><stop offset="1" stop-color="rgb(29,122,218)" stop-opacity="1"/></linearGradient><linearGradient id="UHyekrcXLHcd" x1="4009.000002145767px" x2="2906.0000014305115px" y1="639px" y2="1452.7000021457673px" gradientUnits="userSpaceOnUse"><stop offset="0" stop-color="rgb(211,211,211)" stop-opacity="1"/><stop offset="1" stop-color="rgb(29,122,218)" stop-opacity="1"/></linearGradient></defs><g transform="translate(28.85,5.5) scale(0.1,0.1)"><path fill="rgb(244,236,255)" stroke="rgb(255,255,255)" paint-order="fill stroke markers" d=" M 2282.5000010728836 -53 L 4843.500002145767 -53 L 4843.500002145767 -53 A 8 8 0 0 1 4851.500002145767 -45 L 4851.500002145767 5222.10001001358 L 4851.500002145767 5222.10001001358 A 8 8 0 0 1 4843.500002145767 5230.10001001358 L -278.5 5230.10001001358 L -278.5 5230.10001001358 A 8 8 0 0 1 -286.5 5222.10001001358 L -286.5 -45 L -286.5 -45 A 8 8 0 0 1 -278.5 -53 L 2282.5000010728836 -53 Z" fill-opacity="1" stroke-opacity="1" stroke-miterlimit="10" stroke-width="2"/><text fill="rgb(0,0,0)" stroke="none" font-family="Avenir, Helvetica, Arial, sans-serif" font-size="32px" font-style="normal" font-weight="bold" text-decoration="normal" x="2282.5000010728836" y="22" text-anchor="middle" dominant-baseline="text-after-edge" fill-opacity="1">.</text><path fill="rgb(255,255,255)" stroke="rgb(211,211,211)" paint-order="fill stroke markers" d=" M 2282.5000010728836 148.5 L 4642.000002145767 148.5 L 4642.000002145767 148.5 A 8 8 0 0 1 4650.000002145767 156.5 L 4650.000002145767 5020.60001001358 L 4650.000002145767 5020.60001001358 A 8 8 0 0 1 4642.000002145767 5028.60001001358 L -77 5028.60001001358 L -77 5028.60001001358 A 8 8 0 0 1 -85 5020.60001001358 L -85 156.5 L -85 156.5 A 8 8 0 0 1 -77 148.5 L 2282.5000010728836 148.5 Z" fill-opacity="1" stroke-opacity="1" stroke-miterlimit="10"/><text fill="rgb(0,0,0)" stroke="none" font-family="Avenir, Helvetica, Arial, sans-serif" font-size="32px" font-style="normal" font-weight="bold" text-decoration="normal" x="2282.5000010728836" y="223.5" text-anchor="middle" dominant-baseline="text-after-edge" fill-opacity="1">main.tf</text><path fill="rgb(255,255,255)" stroke="rgb(132,80,186)" paint-order="fill stroke markers" d=" M 1001.5000003576279 2316.2000035762785 L 1974.0000007152557 2316.2000035762785 L 1974.0000007152557 2316.2000035762785 A 8 8 0 0 1 1982.0000007152557 2324.2000035762785 L 1982.0000007152557 4914.60001001358 L 1982.0000007152557 4914.60001001358 A 8 8 0 0 1 1974.0000007152557 4922.60001001358 L 29 4922.60001001358 L 29 4922.60001001358 A 8 8 0 0 1 21 4914.60001001358 L 21 2324.2000035762785 L 21 2324.2000035762785 A 8 8 0 0 1 29 2316.2000035762785 L 1001.5000003576279 2316.2000035762785 Z" fill-opacity="1" stroke-opacity="1" stroke-miterlimit="10" stroke-width="10"/><text fill="rgb(132,80,186)" stroke="none" font-family="Avenir, Helvetica, Arial, sans-serif" font-size="32px" font-style="normal" font-weight="bold" text-decoration="normal" x="1001.5000003576279" y="2376.2000035762785" text-anchor="middle" dominant-baseline="text-after-edge" fill-opacity="1">hcloud_network</text><path fill="rgb(255,255,255)" stroke="rgb(132,80,186)" paint-order="fill stroke markers" d=" M 1001.5000003576279 256 L 1974.0000007152557 256 L 1974.0000007152557 256 A 8 8 0 0 1 1982.0000007152557 264 L 1982.0000007152557 1691.0000021457672 L 1982.0000007152557 1691.0000021457672 A 8 8 0 0 1 1974.0000007152557 1699.0000021457672 L 29 1699.0000021457672 L 29 1699.0000021457672 A 8 8 0 0 1 21 1691.0000021457672 L 21 264 L 21 264 A 8 8 0 0 1 29 256 L 1001.5000003576279 256 Z" fill-opacity="1" stroke-opacity="1" stroke-miterlimit="10" stroke-width="10"/><text fill="rgb(132,80,186)" stroke="none" font-family="Avenir, Helvetica, Arial, sans-serif" font-size="32px" font-style="normal" font-weight="bold" text-decoration="normal" x="1001.5000003576279" y="316" text-anchor="middle" dominant-baseline="text-after-edge" fill-opacity="1">hcloud_ssh_key</text><path fill="rgb(255,255,255)" stroke="rgb(132,80,186)" paint-order="fill stroke markers" d=" M 3485.5000017881393 254.4999999999999 L 4536.000002145767 254.4999999999999 L 4536.000002145767 254.4999999999999 A 8 8 0 0 1 4544.000002145767 262.4999999999999 L 4544.000002145767 1863.2000028610228 L 4544.000002145767 1863.2000028610228 A 8 8 0 0 1 4536.000002145767 1871.2000028610228 L 2435.0000014305115 1871.2000028610228 L 2435.0000014305115 1871.2000028610228 A 8 8 0 0 1 2427.0000014305115 1863.2000028610228 L 2427.0000014305115 262.4999999999999 L 2427.0000014305115 262.4999999999999 A 8 8 0 0 1 2435.0000014305115 254.4999999999999 L 3485.5000017881393 254.4999999999999 Z" fill-opacity="1" stroke-opacity="1" stroke-miterlimit="10" stroke-width="10"/><text fill="rgb(132,80,186)" stroke="none" font-family="Avenir, Helvetica, Arial, sans-serif" font-size="32px" font-style="normal" font-weight="bold" text-decoration="normal" x="3485.5000017881393" y="314.4999999999999" text-anchor="middle" dominant-baseline="text-after-edge" fill-opacity="1">hcloud_firewall</text><path fill="rgb(255,255,255)" stroke="rgb(211,211,211)" paint-order="fill stroke markers" d=" M 685.1 3880.2000092983244 L 1195.7 3880.2000092983244 L 1195.7 3880.2000092983244 A 8 8 0 0 1 1203.7 3888.2000092983244 L 1203.7 4813.10001001358 L 1203.7 4813.10001001358 A 8 8 0 0 1 1195.7 4821.10001001358 L 174.5 4821.10001001358 L 174.5 4821.10001001358 A 8 8 0 0 1 166.5 4813.10001001358 L 166.5 3888.2000092983244 L 166.5 3888.2000092983244 A 8 8 0 0 1 174.5 3880.2000092983244 L 685.1 3880.2000092983244 Z" fill-opacity="1" stroke-opacity="1" stroke-miterlimit="10"/><text fill="rgb(0,0,0)" stroke="none" font-family="Avenir, Helvetica, Arial, sans-serif" font-size="32px" font-style="normal" font-weight="bold" text-decoration="normal" x="685.1" y="3955.2000092983244" text-anchor="middle" dominant-baseline="text-after-edge" fill-opacity="1">main.tf</text><path fill="rgb(255,255,255)" stroke="rgb(211,211,211)" paint-order="fill stroke markers" d=" M 500 2417.7000035762785 L 869.5 2417.7000035762785 L 869.5 2417.7000035762785 A 8 8 0 0 1 877.5 2425.7000035762785 L 877.5 3226.7000064373015 L 877.5 3226.7000064373015 A 8 8 0 0 1 869.5 3234.7000064373015 L 130.5 3234.7000064373015 L 130.5 3234.7000064373015 A 8 8 0 0 1 122.5 3226.7000064373015 L 122.5 2425.7000035762785 L 122.5 2425.7000035762785 A 8 8 0 0 1 130.5 2417.7000035762785 L 500 2417.7000035762785 Z" fill-opacity="1" stroke-opacity="1" stroke-miterlimit="10"/><text fill="rgb(0,0,0)" stroke="none" font-family="Avenir, Helvetica, Arial, sans-serif" font-size="32px" font-style="normal" font-weight="bold" text-decoration="normal" x="500" y="2492.7000035762785" text-anchor="middle" dominant-baseline="text-after-edge" fill-opacity="1">outputs.tf</text><path fill="rgb(255,255,255)" stroke="rgb(211,211,211)" paint-order="fill stroke markers" d=" M 1503.0000007152557 2417.7000035762785 L 1872.5000007152557 2417.7000035762785 L 1872.5000007152557 2417.7000035762785 A 8 8 0 0 1 1880.5000007152557 2425.7000035762785 L 1880.5000007152557 3625.7000085830687 L 1880.5000007152557 3625.7000085830687 A 8 8 0 0 1 1872.5000007152557 3633.7000085830687 L 1133.5000007152557 3633.7000085830687 L 1133.5000007152557 3633.7000085830687 A 8 8 0 0 1 1125.5000007152557 3625.7000085830687 L 1125.5000007152557 2425.7000035762785 L 1125.5000007152557 2425.7000035762785 A 8 8 0 0 1 1133.5000007152557 2417.7000035762785 L 1503.0000007152557 2417.7000035762785 Z" fill-opacity="1" stroke-opacity="1" stroke-miterlimit="10"/><text fill="rgb(0,0,0)" stroke="none" font-family="Avenir, Helvetica, Arial, sans-serif" font-size="32px" font-style="normal" font-weight="bold" text-decoration="normal" x="1503.0000007152557" y="2492.7000035762785" text-anchor="middle" dominant-baseline="text-after-edge" fill-opacity="1">variables.tf</text><path fill="rgb(255,255,255)" stroke="rgb(211,211,211)" paint-order="fill stroke markers" d=" M 500 357.5 L 869.5 357.5 L 869.5 357.5 A 8 8 0 0 1 877.5 365.5 L 877.5 900.5000014305115 L 877.5 900.5000014305115 A 8 8 0 0 1 869.5 908.5000014305115 L 130.5 908.5000014305115 L 130.5 908.5000014305115 A 8 8 0 0 1 122.5 900.5000014305115 L 122.5 365.5 L 122.5 365.5 A 8 8 0 0 1 130.5 357.5 L 500 357.5 Z" fill-opacity="1" stroke-opacity="1" stroke-miterlimit="10"/><text fill="rgb(0,0,0)" stroke="none" font-family="Avenir, Helvetica, Arial, sans-serif" font-size="32px" font-style="normal" font-weight="bold" text-decoration="normal" x="500" y="432.5" text-anchor="middle" dominant-baseline="text-after-edge" fill-opacity="1">outputs.tf</text><path fill="rgb(255,255,255)" stroke="rgb(211,211,211)" paint-order="fill stroke markers" d=" M 1503.0000007152557 357.5 L 1872.5000007152557 357.5 L 1872.5000007152557 357.5 A 8 8 0 0 1 1880.5000007152557 365.5 L 1880.5000007152557 900.5000014305115 L 1880.5000007152557 900.5000014305115 A 8 8 0 0 1 1872.5000007152557 908.5000014305115 L 1133.5000007152557 908.5000014305115 L 1133.5000007152557 908.5000014305115 A 8 8 0 0 1 1125.5000007152557 900.5000014305115 L 1125.5000007152557 365.5 L 1125.5000007152557 365.5 A 8 8 0 0 1 1133.5000007152557 357.5 L 1503.0000007152557 357.5 Z" fill-opacity="1" stroke-opacity="1" stroke-miterlimit="10"/><text fill="rgb(0,0,0)" stroke="none" font-family="Avenir, Helvetica, Arial, sans-serif" font-size="32px" font-style="normal" font-weight="bold" text-decoration="normal" x="1503.0000007152557" y="432.5" text-anchor="middle" dominant-baseline="text-after-edge" fill-opacity="1">variables.tf</text><path fill="rgb(255,255,255)" stroke="rgb(211,211,211)" paint-order="fill stroke markers" d=" M 600 1155.0000021457672 L 1025.5 1155.0000021457672 L 1025.5 1155.0000021457672 A 8 8 0 0 1 1033.5 1163.0000021457672 L 1033.5 1589.5000021457672 L 1033.5 1589.5000021457672 A 8 8 0 0 1 1025.5 1597.5000021457672 L 174.5 1597.5000021457672 L 174.5 1597.5000021457672 A 8 8 0 0 1 166.5 1589.5000021457672 L 166.5 1163.0000021457672 L 166.5 1163.0000021457672 A 8 8 0 0 1 174.5 1155.0000021457672 L 600 1155.0000021457672 Z" fill-opacity="1" stroke-opacity="1" stroke-miterlimit="10"/><text fill="rgb(0,0,0)" stroke="none" font-family="Avenir, Helvetica, Arial, sans-serif" font-size="32px" font-style="normal" font-weight="bold" text-decoration="normal" x="600" y="1230.0000021457672" text-anchor="middle" dominant-baseline="text-after-edge" fill-opacity="1">main.tf</text><path fill="rgb(255,255,255)" stroke="rgb(211,211,211)" paint-order="fill stroke markers" d=" M 2906.0000014305115 357.5 L 3275.5000014305115 357.5 L 3275.5000014305115 357.5 A 8 8 0 0 1 3283.5000014305115 365.5 L 3283.5000014305115 767.5000007152557 L 3283.5000014305115 767.5000007152557 A 8 8 0 0 1 3275.5000014305115 775.5000007152557 L 2536.5000014305115 775.5000007152557 L 2536.5000014305115 775.5000007152557 A 8 8 0 0 1 2528.5000014305115 767.5000007152557 L 2528.5000014305115 365.5 L 2528.5000014305115 365.5 A 8 8 0 0 1 2536.5000014305115 357.5 L 2906.0000014305115 357.5 Z" fill-opacity="1" stroke-opacity="1" stroke-miterlimit="10"/><text fill="rgb(0,0,0)" stroke="none" font-family="Avenir, Helvetica, Arial, sans-serif" font-size="32px" font-style="normal" font-weight="bold" text-decoration="normal" x="2906.0000014305115" y="432.5" text-anchor="middle" dominant-baseline="text-after-edge" fill-opacity="1">outputs.tf</text><path fill="rgb(255,255,255)" stroke="rgb(211,211,211)" paint-order="fill stroke markers" d=" M 2906.0000014305115 1085.7000007152558 L 3275.5000014305115 1085.7000007152558 L 3275.5000014305115 1085.7000007152558 A 8 8 0 0 1 3283.5000014305115 1093.7000007152558 L 3283.5000014305115 1761.700002861023 L 3283.5000014305115 1761.700002861023 A 8 8 0 0 1 3275.5000014305115 1769.700002861023 L 2536.5000014305115 1769.700002861023 L 2536.5000014305115 1769.700002861023 A 8 8 0 0 1 2528.5000014305115 1761.700002861023 L 2528.5000014305115 1093.7000007152558 L 2528.5000014305115 1093.7000007152558 A 8 8 0 0 1 2536.5000014305115 1085.7000007152558 L 2906.0000014305115 1085.7000007152558 Z" fill-opacity="1" stroke-opacity="1" stroke-miterlimit="10"/><text fill="rgb(0,0,0)" stroke="none" font-family="Avenir, Helvetica, Arial, sans-serif" font-size="32px" font-style="normal" font-weight="bold" text-decoration="normal" x="2906.0000014305115" y="1160.7000007152558" text-anchor="middle" dominant-baseline="text-after-edge" fill-opacity="1">variables.tf</text><path fill="rgb(255,255,255)" stroke="rgb(211,211,211)" paint-order="fill stroke markers" d=" M 4009.000002145767 356 L 4434.500002145767 356 L 4434.500002145767 356 A 8 8 0 0 1 4442.500002145767 364 L 4442.500002145767 790.5 L 4442.500002145767 790.5 A 8 8 0 0 1 4434.500002145767 798.5 L 3583.500002145767 798.5 L 3583.500002145767 798.5 A 8 8 0 0 1 3575.500002145767 790.5 L 3575.500002145767 364 L 3575.500002145767 364 A 8 8 0 0 1 3583.500002145767 356 L 4009.000002145767 356 Z" fill-opacity="1" stroke-opacity="1" stroke-miterlimit="10"/><text fill="rgb(0,0,0)" stroke="none" font-family="Avenir, Helvetica, Arial, sans-serif" font-size="32px" font-style="normal" font-weight="bold" text-decoration="normal" x="4009.000002145767" y="431" text-anchor="middle" dominant-baseline="text-after-edge" fill-opacity="1">main.tf</text><path fill="rgb(255,255,255)" stroke="rgb(0,0,0)" paint-order="fill stroke markers" d=" M 700 4341.70001001358 L 1092.2 4341.70001001358 L 1092.2 4341.70001001358 A 8 8 0 0 1 1100.2 4349.70001001358 L 1100.2 4709.60001001358 L 1100.2 4709.60001001358 A 8 8 0 0 1 1092.2 4717.60001001358 L 307.8 4717.60001001358 L 307.8 4717.60001001358 A 8 8 0 0 1 299.8 4709.60001001358 L 299.8 4349.70001001358 L 299.8 4349.70001001358 A 8 8 0 0 1 307.8 4341.70001001358 L 700 4341.70001001358 Z" fill-opacity="1" stroke-opacity="1" stroke-miterlimit="10" stroke-width="5"/><rect fill="rgb(255,255,255)" stroke="none" x="477.5" y="4292.70001001358" width="445" height="96" fill-opacity="1"/><text fill="rgb(0,0,0)" stroke="none" font-family="Avenir, Helvetica, Arial, sans-serif" font-size="32px" font-style="normal" font-weight="bold" text-decoration="normal" x="700" y="4356.70001001358" text-anchor="middle" dominant-baseline="text-after-edge" fill-opacity="1">hcloud_network_subnet</text><path fill="rgb(255,255,255)" stroke="rgb(0,0,0)" paint-order="fill stroke markers" d=" M 600 4029.2000092983244 L 922 4029.2000092983244 L 922 4029.2000092983244 A 8 8 0 0 1 930 4037.2000092983244 L 930 4211.200009298324 L 930 4211.200009298324 A 8 8 0 0 1 922 4219.200009298324 L 278 4219.200009298324 L 278 4219.200009298324 A 8 8 0 0 1 270 4211.200009298324 L 270 4037.2000092983244 L 270 4037.2000092983244 A 8 8 0 0 1 278 4029.2000092983244 L 600 4029.2000092983244 Z" fill-opacity="1" stroke-opacity="1" stroke-miterlimit="10" stroke-width="5"/><rect fill="rgb(255,255,255)" stroke="none" x="439.5" y="3980.2000092983244" width="321" height="96" fill-opacity="1"/><text fill="rgb(0,0,0)" stroke="none" font-family="Avenir, Helvetica, Arial, sans-serif" font-size="32px" font-style="normal" font-weight="bold" text-decoration="normal" x="600" y="4044.2000092983244" text-anchor="middle" dominant-baseline="text-after-edge" fill-opacity="1">hcloud_network</text><path fill="rgb(255,255,255)" stroke="rgb(0,0,0)" paint-order="fill stroke markers" d=" M 600 1304.0000021457672 L 922 1304.0000021457672 L 922 1304.0000021457672 A 8 8 0 0 1 930 1312.0000021457672 L 930 1486.0000021457672 L 930 1486.0000021457672 A 8 8 0 0 1 922 1494.0000021457672 L 278 1494.0000021457672 L 278 1494.0000021457672 A 8 8 0 0 1 270 1486.0000021457672 L 270 1312.0000021457672 L 270 1312.0000021457672 A 8 8 0 0 1 278 1304.0000021457672 L 600 1304.0000021457672 Z" fill-opacity="1" stroke-opacity="1" stroke-miterlimit="10" stroke-width="5"/><rect fill="rgb(255,255,255)" stroke="none" x="446.5" y="1255.0000021457672" width="307" height="96" fill-opacity="1"/><text fill="rgb(0,0,0)" stroke="none" font-family="Avenir, Helvetica, Arial, sans-serif" font-size="32px" font-style="normal" font-weight="bold" text-decoration="normal" x="600" y="1319.0000021457672" text-anchor="middle" dominant-baseline="text-after-edge" fill-opacity="1">hcloud_ssh_key</text><path fill="rgb(255,255,255)" stroke="rgb(0,0,0)" paint-order="fill stroke markers" d=" M 4009.000002145767 505 L 4331.000002145767 505 L 4331.000002145767 505 A 8 8 0 0 1 4339.000002145767 513 L 4339.000002145767 687 L 4339.000002145767 687 A 8 8 0 0 1 4331.000002145767 695 L 3687.000002145767 695 L 3687.000002145767 695 A 8 8 0 0 1 3679.000002145767 687 L 3679.000002145767 513 L 3679.000002145767 513 A 8 8 0 0 1 3687.000002145767 505 L 4009.000002145767 505 Z" fill-opacity="1" stroke-opacity="1" stroke-miterlimit="10" stroke-width="5"/><rect fill="rgb(255,255,255)" stroke="none" x="3856.000002145767" y="456" width="306" height="96" fill-opacity="1"/><text fill="rgb(0,0,0)" stroke="none" font-family="Avenir, Helvetica, Arial, sans-serif" font-size="32px" font-style="normal" font-weight="bold" text-decoration="normal" x="4009.000002145767" y="520" text-anchor="middle" dominant-baseline="text-after-edge" fill-opacity="1">hcloud_firewall</text><path fill="rgb(255,255,255)" stroke="rgb(0,0,0)" paint-order="fill stroke markers" d=" M 700 4457.40001001358 L 1022 4457.40001001358 L 1022 4457.40001001358 A 8 8 0 0 1 1030 4465.40001001358 L 1030 4639.40001001358 L 1030 4639.40001001358 A 8 8 0 0 1 1022 4647.40001001358 L 378 4647.40001001358 L 378 4647.40001001358 A 8 8 0 0 1 370 4639.40001001358 L 370 4465.40001001358 L 370 4465.40001001358 A 8 8 0 0 1 378 4457.40001001358 L 700 4457.40001001358 Z" fill-opacity="1" stroke-opacity="1" stroke-miterlimit="10" stroke-width="5"/><rect fill="rgb(255,255,255)" stroke="none" x="610" y="4408.40001001358" width="180" height="96" fill-opacity="1"/><text fill="rgb(0,0,0)" stroke="none" font-family="Avenir, Helvetica, Arial, sans-serif" font-size="32px" font-style="normal" font-weight="bold" text-decoration="normal" x="700" y="4472.40001001358" text-anchor="middle" dominant-baseline="text-after-edge" fill-opacity="1">default</text><path fill="none" stroke="url(#JJIhmTtNTVsR)" paint-order="fill stroke markers" d=" M 500 3133.7000064373015 L 500 3609.450007867813 L 600 3609.450007867813 L 600 4085.2000092983244" stroke-linejoin="round" stroke-miterlimit="10" stroke-width="10"/><path fill="none" stroke="url(#ATePJKtHNvnK)" paint-order="fill stroke markers" d=" M 500 2601.7000035762785 L 500 3343.4500064373015 L 600 3343.4500064373015 L 600 4085.2000092983244" stroke-linejoin="round" stroke-miterlimit="10" stroke-width="10"/><path fill="none" stroke="url(#zUuADiDOATzS)" paint-order="fill stroke markers" d=" M 500 2734.7000042915342 L 500 3594.800007152557 L 700 3594.800007152557 L 700 4454.90001001358" stroke-linejoin="round" stroke-miterlimit="10" stroke-width="10"/><path fill="none" stroke="url(#EdmsFTqupcvE)" paint-order="fill stroke markers" d=" M 500 2867.70000500679 L 500 3661.300007510185 L 700 3661.300007510185 L 700 4454.90001001358" stroke-linejoin="round" stroke-miterlimit="10" stroke-width="10"/><path fill="none" stroke="url(#vIpVyUMtbFrQ)" paint-order="fill stroke markers" d=" M 500 3000.7000057220457 L 500 3542.950007510185 L 600 3542.950007510185 L 600 4085.2000092983244" stroke-linejoin="round" stroke-miterlimit="10" stroke-width="10"/><path fill="none" stroke="url(#MXqZaZyBCBMo)" paint-order="fill stroke markers" d=" M 600 4085.2000092983244 L 600 3476.450007152557 L 1503.0000007152557 3476.450007152557 L 1503.0000007152557 2867.70000500679" stroke-linejoin="round" stroke-miterlimit="10" stroke-width="10"/><path fill="none" stroke="url(#uTBvJSWMbJES)" paint-order="fill stroke markers" d=" M 600 4085.2000092983244 L 600 3542.950007510185 L 1503.0000007152557 3542.950007510185 L 1503.0000007152557 3000.7000057220457" stroke-linejoin="round" stroke-miterlimit="10" stroke-width="10"/><path fill="none" stroke="url(#QWNKelraGkSB)" paint-order="fill stroke markers" d=" M 600 4085.2000092983244 L 600 3409.9500067949293 L 1503.0000007152557 3409.9500067949293 L 1503.0000007152557 2734.7000042915342" stroke-linejoin="round" stroke-miterlimit="10" stroke-width="10"/><path fill="none" stroke="url(#lhalVmkDrfRA)" paint-order="fill stroke markers" d=" M 600 4085.2000092983244 L 600 3609.450007867813 L 1503.0000007152557 3609.450007867813 L 1503.0000007152557 3133.7000064373015" stroke-linejoin="round" stroke-miterlimit="10" stroke-width="10"/><path fill="none" stroke="url(#DTbtaAAABGwT)" paint-order="fill stroke markers" d=" M 700 4454.90001001358 L 700 3993.8000092983243 L 1503.0000007152557 3993.8000092983243 L 1503.0000007152557 3532.7000085830687" stroke-linejoin="round" stroke-miterlimit="10" stroke-width="10"/><path fill="none" stroke="url(#EvEutKwJmaTt)" paint-order="fill stroke markers" d=" M 700 4454.90001001358 L 700 3860.8000085830686 L 1503.0000007152557 3860.8000085830686 L 1503.0000007152557 3266.700007152557" stroke-linejoin="round" stroke-miterlimit="10" stroke-width="10"/><path fill="none" stroke="url(#tMANlDPOTbNp)" paint-order="fill stroke markers" d=" M 700 4454.90001001358 L 700 3528.3000067949292 L 1503.0000007152557 3528.3000067949292 L 1503.0000007152557 2601.7000035762785" stroke-linejoin="round" stroke-miterlimit="10" stroke-width="10"/><path fill="none" stroke="url(#mMGHkKHMEeHS)" paint-order="fill stroke markers" d=" M 700 4454.90001001358 L 700 4309.050009655952 L 600 4309.050009655952 L 600 4163.200009298324" stroke-linejoin="round" stroke-miterlimit="10" stroke-width="10"/><path fill="none" stroke="url(#KLvvmghCLXxC)" paint-order="fill stroke markers" d=" M 500 541.5 L 500 950.7500010728836 L 600 950.7500010728836 L 600 1360.0000021457672" stroke-linejoin="round" stroke-miterlimit="10" stroke-width="10"/><path fill="none" stroke="url(#cqIfeFkeeVsA)" paint-order="fill stroke markers" d=" M 500 674.5000007152557 L 500 1017.2500014305115 L 600 1017.2500014305115 L 600 1360.0000021457672" stroke-linejoin="round" stroke-miterlimit="10" stroke-width="10"/><path fill="none" stroke="url(#RVmWAJIwMJrD)" paint-order="fill stroke markers" d=" M 500 807.5000014305115 L 500 1083.7500017881393 L 600 1083.7500017881393 L 600 1360.0000021457672" stroke-linejoin="round" stroke-miterlimit="10" stroke-width="10"/><path fill="none" stroke="url(#ubISJiPuEiHw)" paint-order="fill stroke markers" d=" M 600 1360.0000021457672 L 600 950.7500010728836 L 1503.0000007152557 950.7500010728836 L 1503.0000007152557 541.5" stroke-linejoin="round" stroke-miterlimit="10" stroke-width="10"/><path fill="none" stroke="url(#hUOPFDwgdCcg)" paint-order="fill stroke markers" d=" M 600 1360.0000021457672 L 600 1017.2500014305115 L 1503.0000007152557 1017.2500014305115 L 1503.0000007152557 674.5000007152557" stroke-linejoin="round" stroke-miterlimit="10" stroke-width="10"/><path fill="none" stroke="url(#UtwbvwqBzwLk)" paint-order="fill stroke markers" d=" M 600 1360.0000021457672 L 600 1083.7500017881393 L 1503.0000007152557 1083.7500017881393 L 1503.0000007152557 807.5000014305115" stroke-linejoin="round" stroke-miterlimit="10" stroke-width="10"/><path fill="none" stroke="url(#TLyPqJdUtSeB)" paint-order="fill stroke markers" d=" M 3182.5000014305115 500 L 3458.7500017881393 500 L 3458.7500017881393 600 L 3735.000002145767 600" stroke-linejoin="round" stroke-miterlimit="10" stroke-width="10"/><path fill="none" stroke="url(#yfdGncXDTluq)" paint-order="fill stroke markers" d=" M 3182.5000014305115 633.0000007152557 L 3458.7500017881393 633.0000007152557 L 3458.7500017881393 600 L 3735.000002145767 600" stroke-linejoin="round" stroke-miterlimit="10" stroke-width="10"/><path fill="none" stroke="url(#GZfXdMTwkNgT)" paint-order="fill stroke markers" d=" M 4009.000002145767 639 L 4009.000002145767 979.3500007152558 L 2906.0000014305115 979.3500007152558 L 2906.0000014305115 1319.7000014305115" stroke-linejoin="round" stroke-miterlimit="10" stroke-width="10"/><path fill="none" stroke="url(#UHyekrcXLHcd)" paint-order="fill stroke markers" d=" M 4009.000002145767 639 L 4009.000002145767 1045.8500010728835 L 2906.0000014305115 1045.8500010728835 L 2906.0000014305115 1452.7000021457673" stroke-linejoin="round" stroke-miterlimit="10" stroke-width="10"/><path fill="rgb(40,167,69)" stroke="url(#UHyekrcXLHcd)" paint-order="stroke fill markers" d=" M 700 4513.40001001358 L 966 4513.40001001358 L 966 4513.40001001358 A 8 8 0 0 1 974 4521.40001001358 L 974 4583.40001001358 L 974 4583.40001001358 A 8 8 0 0 1 966 4591.40001001358 L 434 4591.40001001358 L 434 4591.40001001358 A 8 8 0 0 1 426 4583.40001001358 L 426 4521.40001001358 L 426 4521.40001001358 A 8 8 0 0 1 434 4513.40001001358 L 700 4513.40001001358 Z" fill-opacity="1"/><text fill="rgb(255,255,255)" stroke="none" font-family="Avenir, Helvetica, Arial, sans-serif" font-size="32px" font-style="normal" font-weight="bold" text-decoration="normal" x="700" y="4568.40001001358" text-anchor="middle" dominant-baseline="text-after-edge" fill-opacity="1">default["10.0.0.0/24"]</text><path fill="rgb(40,167,69)" stroke="none" paint-order="stroke fill markers" d=" M 600 4085.2000092983244 L 866 4085.2000092983244 L 866 4085.2000092983244 A 8 8 0 0 1 874 4093.2000092983244 L 874 4155.200009298324 L 874 4155.200009298324 A 8 8 0 0 1 866 4163.200009298324 L 334 4163.200009298324 L 334 4163.200009298324 A 8 8 0 0 1 326 4155.200009298324 L 326 4093.2000092983244 L 326 4093.2000092983244 A 8 8 0 0 1 334 4085.2000092983244 L 600 4085.2000092983244 Z" fill-opacity="1"/><text fill="rgb(255,255,255)" stroke="none" font-family="Avenir, Helvetica, Arial, sans-serif" font-size="32px" font-style="normal" font-weight="bold" text-decoration="normal" x="600" y="4140.200009298324" text-anchor="middle" dominant-baseline="text-after-edge" fill-opacity="1">default</text><path fill="rgb(255,247,224)" stroke="rgb(255,193,7)" paint-order="fill stroke markers" d=" M 500 2521.2000035762785 L 766 2521.2000035762785 L 766 2521.2000035762785 A 8 8 0 0 1 774 2529.2000035762785 L 774 2591.2000035762785 L 774 2591.2000035762785 A 8 8 0 0 1 766 2599.2000035762785 L 234 2599.2000035762785 L 234 2599.2000035762785 A 8 8 0 0 1 226 2591.2000035762785 L 226 2529.2000035762785 L 226 2529.2000035762785 A 8 8 0 0 1 234 2521.2000035762785 L 500 2521.2000035762785 Z" fill-opacity="1" stroke-opacity="1" stroke-miterlimit="10" stroke-width="5"/><text fill="rgb(0,0,0)" stroke="none" font-family="Avenir, Helvetica, Arial, sans-serif" font-size="32px" font-style="normal" font-weight="bold" text-decoration="normal" x="500" y="2576.2000035762785" text-anchor="middle" dominant-baseline="text-after-edge" fill-opacity="1">ip_range_network</text><path fill="rgb(255,247,224)" stroke="rgb(255,193,7)" paint-order="fill stroke markers" d=" M 500 2654.2000042915342 L 766 2654.2000042915342 L 766 2654.2000042915342 A 8 8 0 0 1 774 2662.2000042915342 L 774 2724.2000042915342 L 774 2724.2000042915342 A 8 8 0 0 1 766 2732.2000042915342 L 234 2732.2000042915342 L 234 2732.2000042915342 A 8 8 0 0 1 226 2724.2000042915342 L 226 2662.2000042915342 L 226 2662.2000042915342 A 8 8 0 0 1 234 2654.2000042915342 L 500 2654.2000042915342 Z" fill-opacity="1" stroke-opacity="1" stroke-miterlimit="10" stroke-width="5"/><text fill="rgb(0,0,0)" stroke="none" font-family="Avenir, Helvetica, Arial, sans-serif" font-size="32px" font-style="normal" font-weight="bold" text-decoration="normal" x="500" y="2709.2000042915342" text-anchor="middle" dominant-baseline="text-after-edge" fill-opacity="1">id_subnet</text><path fill="rgb(255,247,224)" stroke="rgb(255,193,7)" paint-order="fill stroke markers" d=" M 500 2787.20000500679 L 766 2787.20000500679 L 766 2787.20000500679 A 8 8 0 0 1 774 2795.20000500679 L 774 2857.20000500679 L 774 2857.20000500679 A 8 8 0 0 1 766 2865.20000500679 L 234 2865.20000500679 L 234 2865.20000500679 A 8 8 0 0 1 226 2857.20000500679 L 226 2795.20000500679 L 226 2795.20000500679 A 8 8 0 0 1 234 2787.20000500679 L 500 2787.20000500679 Z" fill-opacity="1" stroke-opacity="1" stroke-miterlimit="10" stroke-width="5"/><text fill="rgb(0,0,0)" stroke="none" font-family="Avenir, Helvetica, Arial, sans-serif" font-size="32px" font-style="normal" font-weight="bold" text-decoration="normal" x="500" y="2842.20000500679" text-anchor="middle" dominant-baseline="text-after-edge" fill-opacity="1">ip_range_subnet</text><path fill="rgb(255,247,224)" stroke="rgb(255,193,7)" paint-order="fill stroke markers" d=" M 500 2920.2000057220457 L 766 2920.2000057220457 L 766 2920.2000057220457 A 8 8 0 0 1 774 2928.2000057220457 L 774 2990.2000057220457 L 774 2990.2000057220457 A 8 8 0 0 1 766 2998.2000057220457 L 234 2998.2000057220457 L 234 2998.2000057220457 A 8 8 0 0 1 226 2990.2000057220457 L 226 2928.2000057220457 L 226 2928.2000057220457 A 8 8 0 0 1 234 2920.2000057220457 L 500 2920.2000057220457 Z" fill-opacity="1" stroke-opacity="1" stroke-miterlimit="10" stroke-width="5"/><text fill="rgb(0,0,0)" stroke="none" font-family="Avenir, Helvetica, Arial, sans-serif" font-size="32px" font-style="normal" font-weight="bold" text-decoration="normal" x="500" y="2975.2000057220457" text-anchor="middle" dominant-baseline="text-after-edge" fill-opacity="1">name</text><path fill="rgb(255,247,224)" stroke="rgb(255,193,7)" paint-order="fill stroke markers" d=" M 500 3053.2000064373015 L 766 3053.2000064373015 L 766 3053.2000064373015 A 8 8 0 0 1 774 3061.2000064373015 L 774 3123.2000064373015 L 774 3123.2000064373015 A 8 8 0 0 1 766 3131.2000064373015 L 234 3131.2000064373015 L 234 3131.2000064373015 A 8 8 0 0 1 226 3123.2000064373015 L 226 3061.2000064373015 L 226 3061.2000064373015 A 8 8 0 0 1 234 3053.2000064373015 L 500 3053.2000064373015 Z" fill-opacity="1" stroke-opacity="1" stroke-miterlimit="10" stroke-width="5"/><text fill="rgb(0,0,0)" stroke="none" font-family="Avenir, Helvetica, Arial, sans-serif" font-size="32px" font-style="normal" font-weight="bold" text-decoration="normal" x="500" y="3108.2000064373015" text-anchor="middle" dominant-baseline="text-after-edge" fill-opacity="1">id_network</text><path fill="rgb(225,240,255)" stroke="rgb(29,122,218)" paint-order="fill stroke markers" d=" M 1503.0000007152557 2521.2000035762785 L 1769.0000007152557 2521.2000035762785 L 1769.0000007152557 2521.2000035762785 A 8 8 0 0 1 1777.0000007152557 2529.2000035762785 L 1777.0000007152557 2591.2000035762785 L 1777.0000007152557 2591.2000035762785 A 8 8 0 0 1 1769.0000007152557 2599.2000035762785 L 1237.0000007152557 2599.2000035762785 L 1237.0000007152557 2599.2000035762785 A 8 8 0 0 1 1229.0000007152557 2591.2000035762785 L 1229.0000007152557 2529.2000035762785 L 1229.0000007152557 2529.2000035762785 A 8 8 0 0 1 1237.0000007152557 2521.2000035762785 L 1503.0000007152557 2521.2000035762785 Z" fill-opacity="1" stroke-opacity="1" stroke-miterlimit="10" stroke-width="5"/><text fill="rgb(0,0,0)" stroke="none" font-family="Avenir, Helvetica, Arial, sans-serif" font-size="32px" font-style="normal" font-weight="bold" text-decoration="normal" x="1503.0000007152557" y="2576.2000035762785" text-anchor="middle" dominant-baseline="text-after-edge" fill-opacity="1">vswitch_id</text><path fill="rgb(225,240,255)" stroke="rgb(29,122,218)" paint-order="fill stroke markers" d=" M 1503.0000007152557 2654.2000042915342 L 1769.0000007152557 2654.2000042915342 L 1769.0000007152557 2654.2000042915342 A 8 8 0 0 1 1777.0000007152557 2662.2000042915342 L 1777.0000007152557 2724.2000042915342 L 1777.0000007152557 2724.2000042915342 A 8 8 0 0 1 1769.0000007152557 2732.2000042915342 L 1237.0000007152557 2732.2000042915342 L 1237.0000007152557 2732.2000042915342 A 8 8 0 0 1 1229.0000007152557 2724.2000042915342 L 1229.0000007152557 2662.2000042915342 L 1229.0000007152557 2662.2000042915342 A 8 8 0 0 1 1237.0000007152557 2654.2000042915342 L 1503.0000007152557 2654.2000042915342 Z" fill-opacity="1" stroke-opacity="1" stroke-miterlimit="10" stroke-width="5"/><text fill="rgb(0,0,0)" stroke="none" font-family="Avenir, Helvetica, Arial, sans-serif" font-size="32px" font-style="normal" font-weight="bold" text-decoration="normal" x="1503.0000007152557" y="2709.2000042915342" text-anchor="middle" dominant-baseline="text-after-edge" fill-opacity="1">name</text><path fill="rgb(225,240,255)" stroke="rgb(29,122,218)" paint-order="fill stroke markers" d=" M 1503.0000007152557 2787.20000500679 L 1769.0000007152557 2787.20000500679 L 1769.0000007152557 2787.20000500679 A 8 8 0 0 1 1777.0000007152557 2795.20000500679 L 1777.0000007152557 2857.20000500679 L 1777.0000007152557 2857.20000500679 A 8 8 0 0 1 1769.0000007152557 2865.20000500679 L 1237.0000007152557 2865.20000500679 L 1237.0000007152557 2865.20000500679 A 8 8 0 0 1 1229.0000007152557 2857.20000500679 L 1229.0000007152557 2795.20000500679 L 1229.0000007152557 2795.20000500679 A 8 8 0 0 1 1237.0000007152557 2787.20000500679 L 1503.0000007152557 2787.20000500679 Z" fill-opacity="1" stroke-opacity="1" stroke-miterlimit="10" stroke-width="5"/><text fill="rgb(0,0,0)" stroke="none" font-family="Avenir, Helvetica, Arial, sans-serif" font-size="32px" font-style="normal" font-weight="bold" text-decoration="normal" x="1503.0000007152557" y="2842.20000500679" text-anchor="middle" dominant-baseline="text-after-edge" fill-opacity="1">ip_range_network</text><path fill="rgb(225,240,255)" stroke="rgb(29,122,218)" paint-order="fill stroke markers" d=" M 1503.0000007152557 2920.2000057220457 L 1769.0000007152557 2920.2000057220457 L 1769.0000007152557 2920.2000057220457 A 8 8 0 0 1 1777.0000007152557 2928.2000057220457 L 1777.0000007152557 2990.2000057220457 L 1777.0000007152557 2990.2000057220457 A 8 8 0 0 1 1769.0000007152557 2998.2000057220457 L 1237.0000007152557 2998.2000057220457 L 1237.0000007152557 2998.2000057220457 A 8 8 0 0 1 1229.0000007152557 2990.2000057220457 L 1229.0000007152557 2928.2000057220457 L 1229.0000007152557 2928.2000057220457 A 8 8 0 0 1 1237.0000007152557 2920.2000057220457 L 1503.0000007152557 2920.2000057220457 Z" fill-opacity="1" stroke-opacity="1" stroke-miterlimit="10" stroke-width="5"/><text fill="rgb(0,0,0)" stroke="none" font-family="Avenir, Helvetica, Arial, sans-serif" font-size="32px" font-style="normal" font-weight="bold" text-decoration="normal" x="1503.0000007152557" y="2975.2000057220457" text-anchor="middle" dominant-baseline="text-after-edge" fill-opacity="1">labels</text><path fill="rgb(225,240,255)" stroke="rgb(29,122,218)" paint-order="fill stroke markers" d=" M 1503.0000007152557 3053.2000064373015 L 1769.0000007152557 3053.2000064373015 L 1769.0000007152557 3053.2000064373015 A 8 8 0 0 1 1777.0000007152557 3061.2000064373015 L 1777.0000007152557 3123.2000064373015 L 1777.0000007152557 3123.2000064373015 A 8 8 0 0 1 1769.0000007152557 3131.2000064373015 L 1237.0000007152557 3131.2000064373015 L 1237.0000007152557 3131.2000064373015 A 8 8 0 0 1 1229.0000007152557 3123.2000064373015 L 1229.0000007152557 3061.2000064373015 L 1229.0000007152557 3061.2000064373015 A 8 8 0 0 1 1237.0000007152557 3053.2000064373015 L 1503.0000007152557 3053.2000064373015 Z" fill-opacity="1" stroke-opacity="1" stroke-miterlimit="10" stroke-width="5"/><text fill="rgb(0,0,0)" stroke="none" font-family="Avenir, Helvetica, Arial, sans-serif" font-size="32px" font-style="normal" font-weight="bold" text-decoration="normal" x="1503.0000007152557" y="3108.2000064373015" text-anchor="middle" dominant-baseline="text-after-edge" fill-opacity="1">delete_protection</text><path fill="rgb(225,240,255)" stroke="rgb(29,122,218)" paint-order="fill stroke markers" d=" M 1503.0000007152557 3186.200007152557 L 1769.0000007152557 3186.200007152557 L 1769.0000007152557 3186.200007152557 A 8 8 0 0 1 1777.0000007152557 3194.200007152557 L 1777.0000007152557 3256.200007152557 L 1777.0000007152557 3256.200007152557 A 8 8 0 0 1 1769.0000007152557 3264.200007152557 L 1237.0000007152557 3264.200007152557 L 1237.0000007152557 3264.200007152557 A 8 8 0 0 1 1229.0000007152557 3256.200007152557 L 1229.0000007152557 3194.200007152557 L 1229.0000007152557 3194.200007152557 A 8 8 0 0 1 1237.0000007152557 3186.200007152557 L 1503.0000007152557 3186.200007152557 Z" fill-opacity="1" stroke-opacity="1" stroke-miterlimit="10" stroke-width="5"/><text fill="rgb(0,0,0)" stroke="none" font-family="Avenir, Helvetica, Arial, sans-serif" font-size="32px" font-style="normal" font-weight="bold" text-decoration="normal" x="1503.0000007152557" y="3241.200007152557" text-anchor="middle" dominant-baseline="text-after-edge" fill-opacity="1">type</text><path fill="rgb(225,240,255)" stroke="rgb(29,122,218)" paint-order="fill stroke markers" d=" M 1503.0000007152557 3319.200007867813 L 1769.0000007152557 3319.200007867813 L 1769.0000007152557 3319.200007867813 A 8 8 0 0 1 1777.0000007152557 3327.200007867813 L 1777.0000007152557 3389.200007867813 L 1777.0000007152557 3389.200007867813 A 8 8 0 0 1 1769.0000007152557 3397.200007867813 L 1237.0000007152557 3397.200007867813 L 1237.0000007152557 3397.200007867813 A 8 8 0 0 1 1229.0000007152557 3389.200007867813 L 1229.0000007152557 3327.200007867813 L 1229.0000007152557 3327.200007867813 A 8 8 0 0 1 1237.0000007152557 3319.200007867813 L 1503.0000007152557 3319.200007867813 Z" fill-opacity="1" stroke-opacity="1" stroke-miterlimit="10" stroke-width="5"/><text fill="rgb(0,0,0)" stroke="none" font-family="Avenir, Helvetica, Arial, sans-serif" font-size="32px" font-style="normal" font-weight="bold" text-decoration="normal" x="1503.0000007152557" y="3374.200007867813" text-anchor="middle" dominant-baseline="text-after-edge" fill-opacity="1">ip_range_subnet</text><path fill="rgb(225,240,255)" stroke="rgb(29,122,218)" paint-order="fill stroke markers" d=" M 1503.0000007152557 3452.2000085830687 L 1769.0000007152557 3452.2000085830687 L 1769.0000007152557 3452.2000085830687 A 8 8 0 0 1 1777.0000007152557 3460.2000085830687 L 1777.0000007152557 3522.2000085830687 L 1777.0000007152557 3522.2000085830687 A 8 8 0 0 1 1769.0000007152557 3530.2000085830687 L 1237.0000007152557 3530.2000085830687 L 1237.0000007152557 3530.2000085830687 A 8 8 0 0 1 1229.0000007152557 3522.2000085830687 L 1229.0000007152557 3460.2000085830687 L 1229.0000007152557 3460.2000085830687 A 8 8 0 0 1 1237.0000007152557 3452.2000085830687 L 1503.0000007152557 3452.2000085830687 Z" fill-opacity="1" stroke-opacity="1" stroke-miterlimit="10" stroke-width="5"/><text fill="rgb(0,0,0)" stroke="none" font-family="Avenir, Helvetica, Arial, sans-serif" font-size="32px" font-style="normal" font-weight="bold" text-decoration="normal" x="1503.0000007152557" y="3507.2000085830687" text-anchor="middle" dominant-baseline="text-after-edge" fill-opacity="1">network_zone</text><path fill="rgb(255,247,224)" stroke="rgb(255,193,7)" paint-order="fill stroke markers" d=" M 500 461 L 766 461 L 766 461 A 8 8 0 0 1 774 469 L 774 531 L 774 531 A 8 8 0 0 1 766 539 L 234 539 L 234 539 A 8 8 0 0 1 226 531 L 226 469 L 226 469 A 8 8 0 0 1 234 461 L 500 461 Z" fill-opacity="1" stroke-opacity="1" stroke-miterlimit="10" stroke-width="5"/><text fill="rgb(0,0,0)" stroke="none" font-family="Avenir, Helvetica, Arial, sans-serif" font-size="32px" font-style="normal" font-weight="bold" text-decoration="normal" x="500" y="516" text-anchor="middle" dominant-baseline="text-after-edge" fill-opacity="1">name</text><path fill="rgb(255,247,224)" stroke="rgb(255,193,7)" paint-order="fill stroke markers" d=" M 500 594.0000007152557 L 766 594.0000007152557 L 766 594.0000007152557 A 8 8 0 0 1 774 602.0000007152557 L 774 664.0000007152557 L 774 664.0000007152557 A 8 8 0 0 1 766 672.0000007152557 L 234 672.0000007152557 L 234 672.0000007152557 A 8 8 0 0 1 226 664.0000007152557 L 226 602.0000007152557 L 226 602.0000007152557 A 8 8 0 0 1 234 594.0000007152557 L 500 594.0000007152557 Z" fill-opacity="1" stroke-opacity="1" stroke-miterlimit="10" stroke-width="5"/><text fill="rgb(0,0,0)" stroke="none" font-family="Avenir, Helvetica, Arial, sans-serif" font-size="32px" font-style="normal" font-weight="bold" text-decoration="normal" x="500" y="649.0000007152557" text-anchor="middle" dominant-baseline="text-after-edge" fill-opacity="1">public_key</text><path fill="rgb(255,247,224)" stroke="rgb(255,193,7)" paint-order="fill stroke markers" d=" M 500 727.0000014305115 L 766 727.0000014305115 L 766 727.0000014305115 A 8 8 0 0 1 774 735.0000014305115 L 774 797.0000014305115 L 774 797.0000014305115 A 8 8 0 0 1 766 805.0000014305115 L 234 805.0000014305115 L 234 805.0000014305115 A 8 8 0 0 1 226 797.0000014305115 L 226 735.0000014305115 L 226 735.0000014305115 A 8 8 0 0 1 234 727.0000014305115 L 500 727.0000014305115 Z" fill-opacity="1" stroke-opacity="1" stroke-miterlimit="10" stroke-width="5"/><text fill="rgb(0,0,0)" stroke="none" font-family="Avenir, Helvetica, Arial, sans-serif" font-size="32px" font-style="normal" font-weight="bold" text-decoration="normal" x="500" y="782.0000014305115" text-anchor="middle" dominant-baseline="text-after-edge" fill-opacity="1">fingerprint</text><path fill="rgb(225,240,255)" stroke="rgb(29,122,218)" paint-order="fill stroke markers" d=" M 1503.0000007152557 461 L 1769.0000007152557 461 L 1769.0000007152557 461 A 8 8 0 0 1 1777.0000007152557 469 L 1777.0000007152557 531 L 1777.0000007152557 531 A 8 8 0 0 1 1769.0000007152557 539 L 1237.0000007152557 539 L 1237.0000007152557 539 A 8 8 0 0 1 1229.0000007152557 531 L 1229.0000007152557 469 L 1229.0000007152557 469 A 8 8 0 0 1 1237.0000007152557 461 L 1503.0000007152557 461 Z" fill-opacity="1" stroke-opacity="1" stroke-miterlimit="10" stroke-width="5"/><text fill="rgb(0,0,0)" stroke="none" font-family="Avenir, Helvetica, Arial, sans-serif" font-size="32px" font-style="normal" font-weight="bold" text-decoration="normal" x="1503.0000007152557" y="516" text-anchor="middle" dominant-baseline="text-after-edge" fill-opacity="1">name</text><path fill="rgb(225,240,255)" stroke="rgb(29,122,218)" paint-order="fill stroke markers" d=" M 1503.0000007152557 594.0000007152557 L 1769.0000007152557 594.0000007152557 L 1769.0000007152557 594.0000007152557 A 8 8 0 0 1 1777.0000007152557 602.0000007152557 L 1777.0000007152557 664.0000007152557 L 1777.0000007152557 664.0000007152557 A 8 8 0 0 1 1769.0000007152557 672.0000007152557 L 1237.0000007152557 672.0000007152557 L 1237.0000007152557 672.0000007152557 A 8 8 0 0 1 1229.0000007152557 664.0000007152557 L 1229.0000007152557 602.0000007152557 L 1229.0000007152557 602.0000007152557 A 8 8 0 0 1 1237.0000007152557 594.0000007152557 L 1503.0000007152557 594.0000007152557 Z" fill-opacity="1" stroke-opacity="1" stroke-miterlimit="10" stroke-width="5"/><text fill="rgb(0,0,0)" stroke="none" font-family="Avenir, Helvetica, Arial, sans-serif" font-size="32px" font-style="normal" font-weight="bold" text-decoration="normal" x="1503.0000007152557" y="649.0000007152557" text-anchor="middle" dominant-baseline="text-after-edge" fill-opacity="1">public_key</text><path fill="rgb(225,240,255)" stroke="rgb(29,122,218)" paint-order="fill stroke markers" d=" M 1503.0000007152557 727.0000014305115 L 1769.0000007152557 727.0000014305115 L 1769.0000007152557 727.0000014305115 A 8 8 0 0 1 1777.0000007152557 735.0000014305115 L 1777.0000007152557 797.0000014305115 L 1777.0000007152557 797.0000014305115 A 8 8 0 0 1 1769.0000007152557 805.0000014305115 L 1237.0000007152557 805.0000014305115 L 1237.0000007152557 805.0000014305115 A 8 8 0 0 1 1229.0000007152557 797.0000014305115 L 1229.0000007152557 735.0000014305115 L 1229.0000007152557 735.0000014305115 A 8 8 0 0 1 1237.0000007152557 727.0000014305115 L 1503.0000007152557 727.0000014305115 Z" fill-opacity="1" stroke-opacity="1" stroke-miterlimit="10" stroke-width="5"/><text fill="rgb(0,0,0)" stroke="none" font-family="Avenir, Helvetica, Arial, sans-serif" font-size="32px" font-style="normal" font-weight="bold" text-decoration="normal" x="1503.0000007152557" y="782.0000014305115" text-anchor="middle" dominant-baseline="text-after-edge" fill-opacity="1">labels</text><path fill="rgb(40,167,69)" stroke="none" paint-order="stroke fill markers" d=" M 600 1360.0000021457672 L 866 1360.0000021457672 L 866 1360.0000021457672 A 8 8 0 0 1 874 1368.0000021457672 L 874 1430.0000021457672 L 874 1430.0000021457672 A 8 8 0 0 1 866 1438.0000021457672 L 334 1438.0000021457672 L 334 1438.0000021457672 A 8 8 0 0 1 326 1430.0000021457672 L 326 1368.0000021457672 L 326 1368.0000021457672 A 8 8 0 0 1 334 1360.0000021457672 L 600 1360.0000021457672 Z" fill-opacity="1"/><text fill="rgb(255,255,255)" stroke="none" font-family="Avenir, Helvetica, Arial, sans-serif" font-size="32px" font-style="normal" font-weight="bold" text-decoration="normal" x="600" y="1415.0000021457672" text-anchor="middle" dominant-baseline="text-after-edge" fill-opacity="1">default</text><path fill="rgb(255,247,224)" stroke="rgb(255,193,7)" paint-order="fill stroke markers" d=" M 2906.0000014305115 461 L 3172.0000014305115 461 L 3172.0000014305115 461 A 8 8 0 0 1 3180.0000014305115 469 L 3180.0000014305115 531 L 3180.0000014305115 531 A 8 8 0 0 1 3172.0000014305115 539 L 2640.0000014305115 539 L 2640.0000014305115 539 A 8 8 0 0 1 2632.0000014305115 531 L 2632.0000014305115 469 L 2632.0000014305115 469 A 8 8 0 0 1 2640.0000014305115 461 L 2906.0000014305115 461 Z" fill-opacity="1" stroke-opacity="1" stroke-miterlimit="10" stroke-width="5"/><text fill="rgb(0,0,0)" stroke="none" font-family="Avenir, Helvetica, Arial, sans-serif" font-size="32px" font-style="normal" font-weight="bold" text-decoration="normal" x="2906.0000014305115" y="516" text-anchor="middle" dominant-baseline="text-after-edge" fill-opacity="1">id</text><path fill="rgb(255,247,224)" stroke="rgb(255,193,7)" paint-order="fill stroke markers" d=" M 2906.0000014305115 594.0000007152557 L 3172.0000014305115 594.0000007152557 L 3172.0000014305115 594.0000007152557 A 8 8 0 0 1 3180.0000014305115 602.0000007152557 L 3180.0000014305115 664.0000007152557 L 3180.0000014305115 664.0000007152557 A 8 8 0 0 1 3172.0000014305115 672.0000007152557 L 2640.0000014305115 672.0000007152557 L 2640.0000014305115 672.0000007152557 A 8 8 0 0 1 2632.0000014305115 664.0000007152557 L 2632.0000014305115 602.0000007152557 L 2632.0000014305115 602.0000007152557 A 8 8 0 0 1 2640.0000014305115 594.0000007152557 L 2906.0000014305115 594.0000007152557 Z" fill-opacity="1" stroke-opacity="1" stroke-miterlimit="10" stroke-width="5"/><text fill="rgb(0,0,0)" stroke="none" font-family="Avenir, Helvetica, Arial, sans-serif" font-size="32px" font-style="normal" font-weight="bold" text-decoration="normal" x="2906.0000014305115" y="649.0000007152557" text-anchor="middle" dominant-baseline="text-after-edge" fill-opacity="1">name</text><path fill="rgb(225,240,255)" stroke="rgb(29,122,218)" paint-order="fill stroke markers" d=" M 2906.0000014305115 1189.2000007152558 L 3172.0000014305115 1189.2000007152558 L 3172.0000014305115 1189.2000007152558 A 8 8 0 0 1 3180.0000014305115 1197.2000007152558 L 3180.0000014305115 1259.2000007152558 L 3180.0000014305115 1259.2000007152558 A 8 8 0 0 1 3172.0000014305115 1267.2000007152558 L 2640.0000014305115 1267.2000007152558 L 2640.0000014305115 1267.2000007152558 A 8 8 0 0 1 2632.0000014305115 1259.2000007152558 L 2632.0000014305115 1197.2000007152558 L 2632.0000014305115 1197.2000007152558 A 8 8 0 0 1 2640.0000014305115 1189.2000007152558 L 2906.0000014305115 1189.2000007152558 Z" fill-opacity="1" stroke-opacity="1" stroke-miterlimit="10" stroke-width="5"/><text fill="rgb(0,0,0)" stroke="none" font-family="Avenir, Helvetica, Arial, sans-serif" font-size="32px" font-style="normal" font-weight="bold" text-decoration="normal" x="2906.0000014305115" y="1244.2000007152558" text-anchor="middle" dominant-baseline="text-after-edge" fill-opacity="1">apply_to</text><path fill="rgb(225,240,255)" stroke="rgb(29,122,218)" paint-order="fill stroke markers" d=" M 2906.0000014305115 1322.2000014305115 L 3172.0000014305115 1322.2000014305115 L 3172.0000014305115 1322.2000014305115 A 8 8 0 0 1 3180.0000014305115 1330.2000014305115 L 3180.0000014305115 1392.2000014305115 L 3180.0000014305115 1392.2000014305115 A 8 8 0 0 1 3172.0000014305115 1400.2000014305115 L 2640.0000014305115 1400.2000014305115 L 2640.0000014305115 1400.2000014305115 A 8 8 0 0 1 2632.0000014305115 1392.2000014305115 L 2632.0000014305115 1330.2000014305115 L 2632.0000014305115 1330.2000014305115 A 8 8 0 0 1 2640.0000014305115 1322.2000014305115 L 2906.0000014305115 1322.2000014305115 Z" fill-opacity="1" stroke-opacity="1" stroke-miterlimit="10" stroke-width="5"/><text fill="rgb(0,0,0)" stroke="none" font-family="Avenir, Helvetica, Arial, sans-serif" font-size="32px" font-style="normal" font-weight="bold" text-decoration="normal" x="2906.0000014305115" y="1377.2000014305115" text-anchor="middle" dominant-baseline="text-after-edge" fill-opacity="1">name</text><path fill="rgb(225,240,255)" stroke="rgb(29,122,218)" paint-order="fill stroke markers" d=" M 2906.0000014305115 1455.2000021457673 L 3172.0000014305115 1455.2000021457673 L 3172.0000014305115 1455.2000021457673 A 8 8 0 0 1 3180.0000014305115 1463.2000021457673 L 3180.0000014305115 1525.2000021457673 L 3180.0000014305115 1525.2000021457673 A 8 8 0 0 1 3172.0000014305115 1533.2000021457673 L 2640.0000014305115 1533.2000021457673 L 2640.0000014305115 1533.2000021457673 A 8 8 0 0 1 2632.0000014305115 1525.2000021457673 L 2632.0000014305115 1463.2000021457673 L 2632.0000014305115 1463.2000021457673 A 8 8 0 0 1 2640.0000014305115 1455.2000021457673 L 2906.0000014305115 1455.2000021457673 Z" fill-opacity="1" stroke-opacity="1" stroke-miterlimit="10" stroke-width="5"/><text fill="rgb(0,0,0)" stroke="none" font-family="Avenir, Helvetica, Arial, sans-serif" font-size="32px" font-style="normal" font-weight="bold" text-decoration="normal" x="2906.0000014305115" y="1510.2000021457673" text-anchor="middle" dominant-baseline="text-after-edge" fill-opacity="1">labels</text><path fill="rgb(225,240,255)" stroke="rgb(29,122,218)" paint-order="fill stroke markers" d=" M 2906.0000014305115 1588.200002861023 L 3172.0000014305115 1588.200002861023 L 3172.0000014305115 1588.200002861023 A 8 8 0 0 1 3180.0000014305115 1596.200002861023 L 3180.0000014305115 1658.200002861023 L 3180.0000014305115 1658.200002861023 A 8 8 0 0 1 3172.0000014305115 1666.200002861023 L 2640.0000014305115 1666.200002861023 L 2640.0000014305115 1666.200002861023 A 8 8 0 0 1 2632.0000014305115 1658.200002861023 L 2632.0000014305115 1596.200002861023 L 2632.0000014305115 1596.200002861023 A 8 8 0 0 1 2640.0000014305115 1588.200002861023 L 2906.0000014305115 1588.200002861023 Z" fill-opacity="1" stroke-opacity="1" stroke-miterlimit="10" stroke-width="5"/><text fill="rgb(0,0,0)" stroke="none" font-family="Avenir, Helvetica, Arial, sans-serif" font-size="32px" font-style="normal" font-weight="bold" text-decoration="normal" x="2906.0000014305115" y="1643.200002861023" text-anchor="middle" dominant-baseline="text-after-edge" fill-opacity="1">rule</text><path fill="rgb(40,167,69)" stroke="none" paint-order="stroke fill markers" d=" M 4009.000002145767 561 L 4275.000002145767 561 L 4275.000002145767 561 A 8 8 0 0 1 4283.000002145767 569 L 4283.000002145767 631 L 4283.000002145767 631 A 8 8 0 0 1 4275.000002145767 639 L 3743.000002145767 639 L 3743.000002145767 639 A 8 8 0 0 1 3735.000002145767 631 L 3735.000002145767 569 L 3735.000002145767 569 A 8 8 0 0 1 3743.000002145767 561 L 4009.000002145767 561 Z" fill-opacity="1"/><text fill="rgb(255,255,255)" stroke="none" font-family="Avenir, Helvetica, Arial, sans-serif" font-size="32px" font-style="normal" font-weight="bold" text-decoration="normal" x="4009.000002145767" y="616" text-anchor="middle" dominant-baseline="text-after-edge" fill-opacity="1">default</text><g transform="scale(10,10) translate(-28.85,-5.5)"/></g></svg>